Coordinates
version=1
nRows=17
nColumns=36
inDegrees=yes

Units are S.I. units (second, meters, Newtons, ...)
If the header above contains a line with 'inDegrees', this indicates whether rotational values are in degrees (yes) or radians (no).

endheader
time	pelvis_tilt	pelvis_list	pelvis_rotation	pelvis_tx	pelvis_ty	pelvis_tz	hip_flexion_r	hip_adduction_r	hip_rotation_r	knee_angle_r	knee_angle_r_beta	ankle_angle_r	subtalar_angle_r	mtp_angle_r	hip_flexion_l	hip_adduction_l	hip_rotation_l	knee_angle_l	knee_angle_l_beta	ankle_angle_l	subtalar_angle_l	mtp_angle_l	lumbar_extension	lumbar_bending	lumbar_rotation	arm_flex_r	arm_add_r	arm_rot_r	elbow_flex_r	pro_sup_r	arm_flex_l	arm_add_l	arm_rot_l	elbow_flex_l	pro_sup_l
     29.71666670	     -1.47135844	    -11.77415702	      3.62072650	      0.70399078	      1.02983721	      0.85163477	     17.15071821	     12.21528378	     -9.59546130	     20.04825464	      0.34990805	      7.09377486	     -8.81691293	     -7.49999987	      9.90231929	    -16.83922222	      5.21233570	     63.44973626	      1.10740681	    -13.96178778	     -5.39888666	     -7.49999987	     -4.41384424	     17.51984725	     -0.63699246	      1.72922376	    -13.07629520	     -2.91652863	     19.58327310	     76.88125343	      6.08679591	     -5.45574541	     -7.30963581	     35.85945139	     72.00072227
     29.73333330	     -0.82504026	    -11.04449992	      3.70146980	      0.70154288	      1.03527548	      0.85425334	     14.72735318	     11.78490103	     -9.47879813	     19.30575270	      0.33694895	      8.05106317	     -8.10918913	     -7.49999987	     11.43314295	    -15.72936031	      6.17306553	     64.73708709	      1.12987532	    -10.35952902	     -6.48862271	     -7.49999987	     -5.52771284	     16.61595969	      0.14983465	      2.45851212	    -12.93057556	     -2.94123146	     20.92480870	     75.92065453	      5.64985415	     -5.36763094	     -7.27240728	     32.88771561	     71.66731971
     29.75000000	      0.05506687	    -10.08102006	      3.90690641	      0.69918384	      1.04019018	      0.85697377	     12.00379662	     11.12808065	     -9.44166139	     18.33052987	      0.31992810	      8.86860045	     -7.34196629	     -7.49999987	     12.98771013	    -14.39243712	      6.94303770	     65.62366739	      1.14534906	     -6.88327308	     -7.75954915	     -7.49999987	     -6.98416838	     15.41414944	      1.06744534	      3.04691814	    -12.50833675	     -5.61571721	     22.31852354	     78.37067728	      5.27770792	     -5.20959406	     -8.16648434	     30.13633518	     75.46558851
     29.76666670	      1.27894675	     -8.93276432	      4.11101776	      0.69612006	      1.04631325	      0.85967698	      8.77888633	     10.32836896	     -9.42633745	     16.99945515	      0.29669646	      9.71586041	     -6.08391090	     -7.49999987	     14.30411825	    -12.97501278	      7.26949983	     65.78921487	      1.14823841	     -3.92303986	     -9.02492128	     -7.49999987	     -8.95111338	     13.99737200	      1.88799545	      3.76342990	    -12.34841760	     -5.75886329	     23.60987682	     77.62530985	      5.01918308	     -5.16930175	     -8.57408731	     27.50507547	     74.73248803
     29.78333330	      2.50485275	     -7.72899233	      4.45641380	      0.69112408	      1.05212207	      0.86203657	      5.43473140	      9.49891987	     -9.37804435	     15.25677693	      0.26628099	     10.23796764	     -4.91214194	     -7.49999987	     15.62493770	    -11.61940003	      7.22836500	     64.99924613	      1.13445086	     -1.44902348	     -9.84905491	     -7.49999987	    -10.91284610	     12.55065167	      2.03058878	      4.95624694	    -12.02363395	     -6.05654349	     24.18399362	     77.13190225	      4.68055897	     -5.32958689	     -8.92063544	     25.03848462	     74.30897021
     29.80000000	      3.59601105	     -6.36542211	      4.82331569	      0.68494896	      1.05563924	      0.86392940	      2.17347514	      8.42336150	     -9.86254467	     13.35809317	      0.23314271	     11.15759535	     -2.74748802	     -7.49999987	     16.75248248	    -10.17608608	      6.72008172	     63.12315732	      1.10170693	      0.03554591	    -10.59068264	     -7.49999987	    -12.87898027	     10.86261968	      3.33967343	      4.92909161	    -11.81632867	     -8.58804311	     26.18277992	     77.46547849	      5.19020083	     -5.47973175	     -8.17567291	     22.20005477	     75.66043151
     29.81666670	      4.21218671	     -5.18350823	      4.84433743	      0.67962028	      1.05569010	      0.86618164	     -0.46938030	      7.53642956	     -9.67536064	     11.60001550	      0.20245846	     11.63675597	     -1.81583428	     -7.49999987	     17.96036357	     -9.11292235	      5.57355705	     60.46143626	      1.05525113	      1.10978795	    -10.77582524	     -7.49999987	    -14.28167135	      9.34883123	      3.70985339	      5.88021541	    -11.79574611	     -8.48608661	     27.17356208	     76.38214373	      4.96487380	     -5.72341535	     -8.71021714	     19.95449704	     74.50222739
     29.83333330	      4.39301966	     -4.36716835	      4.90416004	      0.67602602	      1.05412681	      0.86845230	     -2.42769351	      6.89762561	    -10.01525732	     10.19874170	      0.17800162	     12.26025996	     -0.56208292	     -7.49999987	     19.42774373	     -8.35343726	      4.55397319	     57.44394894	      1.00258604	      1.75723147	    -10.83789702	     -7.49999987	    -15.03239696	      8.25203638	      4.24102736	      6.52997323	    -12.11878912	     -8.29390391	     28.72722613	     75.94687661	      4.49274143	     -5.99113246	     -8.83468361	     17.76247335	     74.27410206
     29.85000000	      4.48986791	     -3.72414208	      4.83248401	      0.67329920	      1.05448123	      0.87144504	     -4.08402561	      6.43720906	    -10.02442329	      9.09130161	      0.15867315	     12.45854388	     -0.19418159	     -7.49999987	     20.68588153	     -7.81240379	      3.48177208	     54.01298282	      0.94270439	      2.39665638	    -10.55613369	     -7.49999987	    -15.68008451	      7.38785157	      4.39117267	      7.51428271	    -12.37916014	     -8.40883355	     30.27126850	     76.17530606	      3.33359862	     -6.35220551	     -9.21973964	     16.33363514	     74.54348098
     29.86666670	      4.41229398	     -3.22255331	      4.70075172	      0.67070679	      1.05628694	      0.87464691	     -5.42029638	      6.06685999	     -9.97767674	      8.13261967	      0.14194099	     12.52112037	      0.17661743	     -7.49999987	     21.92547575	     -7.37405775	      2.46930841	     50.27986903	      0.87754926	      2.92169368	     -9.97847750	     -7.49999987	    -16.08528302	      6.64541138	      4.70894403	      8.26783508	    -12.71728008	     -8.48727283	     31.99921239	     75.69987369	      1.94577541	     -6.68707723	     -9.89718607	     15.38510628	     74.04919434
     29.88333330	      4.19124333	     -2.81180279	      4.46166411	      0.66790088	      1.05779182	      0.87701017	     -6.56474622	      5.73425523	     -9.70075847	      7.21080263	      0.12585225	     12.50015170	      0.41758690	     -7.49999987	     23.17704806	     -7.00871028	      1.42055069	     46.31500396	      0.80834931	      3.19130893	     -9.09955383	     -7.49999987	    -16.28757915	      5.98881774	      5.30055239	      8.62460694	    -13.17691530	     -8.42317498	     34.09834650	     75.42841965	      0.74493041	     -6.89668110	    -11.08460260	     14.16421697	     73.82360263
     29.90000000	      3.99655247	     -2.44267878	      4.34514448	      0.66520185	      1.05722458	      0.87698838	     -7.83077486	      5.42546267	     -9.65235378	      6.15090826	      0.10735360	     12.56797308	      0.76745871	     -7.49999987	     24.26894523	     -6.55110039	      0.60669577	     42.01965851	      0.73338139	      3.05577815	     -8.28583490	     -7.49999987	    -16.41241089	      5.46438442	      5.55949135	      9.27019637	    -13.46341709	     -8.50458559	     35.32512591	     74.86745608	     -0.76181804	     -7.09487478	    -11.57855492	     13.57861695	     73.30431055
     29.91666670	      3.80148747	     -2.08566224	      4.22056561	      0.66319324	      1.05394014	      0.87514199	     -9.21454480	      5.13163002	     -9.58950780	      4.97271879	      0.08679032	     12.78946108	      1.10712456	     -7.49999987	     25.21159427	     -6.01304540	     -0.09818686	     37.46566383	      0.65389919	      2.77655013	     -7.32144785	     -7.49999987	    -16.46947285	      5.00852912	      5.84359242	      9.46579325	    -13.84022932	     -8.27497891	     37.33666494	     74.82919611	     -2.03589539	     -7.03473098	    -12.58245883	     12.29479267	     73.43260785
     29.93333330	      3.71827706	     -1.79129061	      4.25932359	      0.66174212	      1.05003921	      0.87361535	    -10.82413964	      4.96822877	     -9.63596350	      3.70122109	      0.06459849	     13.03370611	      1.41876552	     -7.49999987	     25.83117688	     -5.36488132	     -0.41621416	     32.46917642	      0.56669403	      2.70837494	     -6.17652131	     -7.49999987	    -16.59484851	      4.69559496	      5.97135526	      9.73571446	    -14.23057311	     -8.37447473	     38.85230648	     74.71288878	     -3.43814345	     -7.07630028	    -13.71960576	     11.18464255	     74.04642789
     29.95000000	      3.61547083	     -1.57191700	      4.37825671	      0.66058053	      1.04783677	      0.87349450	    -12.46160411	      4.94351636	     -9.57885245	      2.47027834	      0.04311449	     13.23469205	      1.78920900	     -7.49999987	     26.19597568	     -4.68776294	     -0.34774517	     26.94662630	      0.47030735	      3.19642392	     -4.58522376	     -7.49999987	    -16.73854834	      4.49210349	      5.76267898	     10.03791812	    -14.49108114	     -8.12956951	     40.31728618	     74.23602302	     -4.92478200	     -7.17302163	    -14.33087359	     10.31193463	     74.01479356
     29.96666670	      3.43847517	     -1.37799884	      4.59904395	      0.66056440	      1.04663468	      0.87323396	    -13.99343955	      4.95831145	     -9.48973734	      1.52681975	      0.02664803	     13.42553015	      2.24161121	     -7.49999987	     26.37366267	     -3.96975888	      0.22217677	     21.19219505	      0.36987358	      4.11745879	     -2.73122425	     -7.49999987	    -16.79331252	      4.27965595	      5.49696320	     10.16674999	    -14.72172368	     -7.81081598	     41.50385159	     73.69893516	     -6.31087905	     -7.37152544	    -14.73895827	      9.88213276	     73.99689727
     29.98333330	      3.22708495	     -1.18924338	      4.77327762	      0.66237268	      1.04466750	      0.87179135	    -15.36870568	      4.90052522	     -9.20392037	      1.03693535	      0.01809794	     13.61864474	      2.52047961	     -7.49999987	     26.42759689	     -3.30564434	      1.07123768	     15.92906592	      0.27801465	      5.38638234	     -0.94376214	     -7.49999987	    -16.70759813	      4.08481997	      5.14102167	     10.15949378	    -14.79675811	     -7.55537678	     42.46095906	     72.94564722	     -7.61899939	     -7.59507794	    -14.74091998	      9.62229140	     73.49270253
